<?xml version="1.0" encoding="UTF-8"?><svg id="Calque_2" xmlns="http://www.w3.org/2000/svg" viewBox="0 0 1024 264.7"><defs><style>.cls-1{fill:#fff;}.cls-2{fill:#422ad5;}</style></defs><g id="Calque_1-2"><g><path class="cls-1" d="M58.17,144.19l-17.7,18.31v51.85H0V0H40.47V118.73l54.56-58.17h48.87l-56.66,58.46,63.56,95.32h-49.48l-43.16-70.15Z"/><path class="cls-1" d="M165.57,232.63h14.38c16.18,0,22.8-8.37,22.8-20.97,0-8.4-3-18.28-11.69-41.67l-41.37-109.43h42.86l22.77,69.25c4.81,14.08,9.91,33.56,9.91,33.56h.59s4.2-19.48,9.01-33.56l21.58-69.25h41.06l-53.65,157.69c-11.69,34.17-23.09,46.45-54.26,46.45h-23.97v-32.07Z"/><path class="cls-1" d="M308.35,60.56h39.28v20.68h.9c8.4-14.08,23.38-24.87,44.67-24.87,19.48,0,35.08,10.79,42.57,26.97h.59c10.5-16.77,26.68-26.97,46.18-26.97,32.37,0,50.65,20.99,50.65,54.56v103.43h-40.76V117.83c0-17.4-8.69-26.39-23.68-26.39-17.09,0-27.58,13.18-27.58,33.56v89.34h-40.79V117.83c0-17.4-8.69-26.39-23.68-26.39-16.48,0-27.58,13.18-27.58,33.56v89.34h-40.76V60.56Z"/><path class="cls-1" d="M550.1,137.31c0-45.57,30.88-80.94,75.84-80.94,49.48,0,75.84,37.76,75.84,92.64h-111.5c3,23.68,16.18,38.37,39.28,38.37,15.89,0,25.17-7.2,29.66-18.89h40.18c-5.69,27.29-29.98,50.36-69.54,50.36-50.97,0-79.75-35.66-79.75-81.53Zm40.76-16.5h68.35c-1.2-19.48-14.08-32.95-32.66-32.95-21.58,0-32.07,12.89-35.69,32.95Z"/><path class="cls-1" d="M757.93,85.14h.9c9.3-17.38,19.8-26.39,37.79-26.39,4.49,0,7.2,.32,9.59,1.2v35.69h-.9c-26.68-2.71-45.87,11.4-45.87,43.77v74.94h-40.76V60.56h39.25v24.58Z"/><path class="cls-2" d="M822.15,0h40.76V36.57h-40.76V0Zm0,60.56h40.76V214.34h-40.76V60.56Z"/><path class="cls-2" d="M979.94,197.26h-.61c-7.79,11.69-18.87,20.7-45.26,20.7-31.49,0-53.65-16.5-53.65-47.09,0-33.86,27.56-44.65,61.76-49.45,25.46-3.59,37.15-5.69,37.15-17.38s-8.69-18.28-25.78-18.28c-19.19,0-28.46,6.88-29.68,21.58h-36.27c1.2-26.97,21.29-50.68,66.27-50.68s64.74,20.7,64.74,56.66v78.26c0,11.69,1.81,18.58,5.39,21.29v1.49h-39.28c-2.39-3-3.88-10.18-4.78-17.09Zm.29-37.18v-23.07c-7.18,4.2-18.28,6.59-28.46,8.98-21.29,4.81-31.78,9.59-31.78,24s9.59,19.48,23.97,19.48c23.38,0,36.27-14.4,36.27-29.39Z"/></g></g></svg>